<svg xmlns="http://www.w3.org/2000/svg" viewBox="0 0 626 313" preserveAspectRatio="xMidYMid meet">
<g transform="translate(0,313) scale(0.1,-0.1)" fill="none" stroke="#80FF00" stroke-opacity="0.85" stroke-width="0.8" stroke-linecap="round" stroke-linejoin="round">
<path d="M0 2903 l0 -227 80 114 c91 132 117 197 101 257 -20 73 -34 83 -112
83 l-69 0 0 -227z"/>
<path d="M170 3124 c0 -3 5 -15 12 -27 44 -84 27 -145 -90 -318 l-92 -136 0
-245 0 -245 59 -46 c47 -36 66 -60 95 -119 62 -127 92 -329 62 -427 -30 -102
-18 -163 44 -215 42 -34 112 -53 245 -66 139 -13 246 -38 372 -89 125 -51 195
-69 308 -81 121 -13 461 -13 508 1 58 16 67 38 64 164 -2 99 0 115 22 160 50
100 128 156 291 210 180 58 362 167 521 312 47 43 111 100 143 126 101 87 125
176 73 272 -16 28 -100 147 -187 265 -252 339 -265 381 -145 470 l47 35 -122
3 c-143 3 -159 -3 -185 -72 -15 -38 -15 -50 -5 -83 27 -82 218 -359 305 -443
84 -81 173 -195 184 -237 13 -46 6 -77 -30 -129 -52 -77 -267 -258 -364 -307
-61 -30 -160 -52 -330 -72 -277 -33 -285 -39 -382 -282 -91 -229 -151 -279
-348 -290 -129 -8 -221 18 -410 112 -86 43 -188 86 -240 100 -155 44 -164 57
-211 314 -19 103 -50 254 -69 334 -19 80 -35 162 -35 182 0 47 21 83 68 116
101 71 212 67 393 -14 l57 -26 -15 47 c-8 26 -17 92 -20 147 -6 120 10 218 68
403 21 70 42 144 45 165 l7 37 -357 0 c-196 0 -356 -3 -356 -6z m450 -124 c15
-28 -10 -113 -49 -168 -37 -51 -126 -112 -163 -112 -36 0 -61 37 -52 76 16 65
73 141 148 196 48 34 100 38 116 8z"/>
<path d="M535 2993 c-100 -52 -192 -204 -150 -246 22 -22 63 -6 126 50 71 65
116 166 88 199 -14 18 -27 17 -64 -3z"/>
<path d="M896 3095 c-4 -19 -26 -99 -51 -178 -24 -79 -49 -181 -56 -227 -15
-103 -7 -248 17 -319 18 -52 21 -55 69 -68 79 -23 97 -63 29 -63 -28 0 -44 9
-75 39 -48 47 -185 109 -274 124 -105 18 -219 -31 -251 -108 -7 -18 -11 -40
-9 -51 3 -10 20 -86 39 -169 20 -82 51 -234 70 -337 20 -111 42 -201 53 -220
20 -35 49 -49 183 -89 41 -13 135 -54 208 -91 177 -91 254 -112 392 -106 125
6 193 30 243 89 20 23 55 94 91 183 59 150 94 209 139 239 37 24 125 43 312
66 194 25 267 48 354 114 116 87 232 190 267 235 72 94 55 149 -97 308 -109
115 -187 216 -286 374 -91 145 -99 187 -46 258 l24 32 -293 0 -293 -1 60 -55
c33 -31 112 -88 175 -127 155 -95 217 -161 378 -399 150 -223 171 -264 172
-329 0 -103 -145 -229 -301 -260 -58 -11 -156 -8 -509 17 -300 22 -310 28
-310 200 0 126 -16 219 -44 250 -12 14 -56 37 -104 54 -102 35 -143 65 -172
126 -49 101 -34 305 34 459 15 31 26 59 26 61 0 2 -35 4 -79 4 l-79 0 -6 -35z
m345 -1151 c51 -46 149 -289 149 -369 0 -57 -44 -140 -92 -175 -85 -62 -192
-61 -309 1 -155 83 -247 232 -237 385 6 97 35 120 202 160 126 30 253 29 287
-2z"/>
<path d="M941 1925 c-161 -38 -176 -54 -169 -179 6 -104 39 -175 118 -250 104
-99 241 -147 334 -116 80 26 145 113 146 194 0 89 -103 339 -151 363 -38 20
-164 14 -278 -12z"/>
<path d="M1056 3071 c-60 -133 -81 -291 -55 -413 17 -77 69 -126 174 -162 90
-31 130 -63 146 -115 6 -20 13 -99 16 -176 6 -145 11 -162 55 -186 20 -11 309
-34 548 -45 228 -10 309 13 412 118 81 81 91 135 43 228 -22 44 -234 358 -287
425 -51 66 -129 130 -230 190 -45 26 -121 81 -169 122 l-87 73 -270 0 -269 0
-27 -59z m385 -87 c60 -58 59 -142 -3 -201 -46 -43 -73 -55 -128 -57 -39 -1
-54 4 -74 23 -69 65 -48 184 43 247 48 34 120 28 162 -12z m501 -406 c53 -16
133 -89 166 -152 21 -41 26 -65 27 -121 0 -85 -21 -122 -93 -157 -44 -21 -59
-23 -222 -23 -173 0 -176 0 -222 27 -91 54 -114 143 -59 230 33 53 111 117
185 155 107 54 149 62 218 41z"/>
<path d="M1304 2991 c-73 -44 -106 -118 -84 -185 21 -66 77 -83 156 -47 78 35
110 111 77 179 -28 57 -100 83 -149 53z"/>
<path d="M1792 2550 c-61 -22 -106 -48 -164 -97 -113 -94 -132 -187 -56 -260
51 -48 95 -58 253 -58 158 0 210 13 261 66 27 28 29 36 29 102 -1 58 -6 82
-27 122 -67 127 -170 171 -296 125z"/>
<path d="M2519 3102 c-60 -39 -99 -87 -99 -123 0 -49 39 -112 218 -356 94
-127 180 -250 191 -272 27 -52 27 -129 1 -180 -10 -21 -49 -65 -85 -97 -37
-33 -106 -94 -153 -137 -165 -148 -331 -247 -529 -313 -130 -44 -159 -60 -217
-125 -63 -70 -79 -125 -70 -239 8 -102 -2 -127 -59 -156 -28 -15 -65 -17 -282
-15 -316 2 -396 14 -556 82 -113 48 -234 78 -377 93 -194 21 -263 50 -303 128
-23 46 -24 93 -3 166 29 100 0 312 -60 430 -14 27 -49 71 -78 97 l-53 48 -3
-113 c-2 -103 0 -117 25 -178 39 -95 39 -196 1 -271 l-28 -53 0 -253 0 -252
62 -13 c147 -28 198 -70 273 -225 55 -115 91 -156 247 -287 74 -62 113 -138
106 -206 -3 -26 -21 -88 -41 -138 -20 -49 -39 -102 -42 -117 l-7 -27 132 0
c122 0 132 1 125 18 -16 38 -17 69 -6 161 19 151 27 304 18 349 -6 33 -21 52
-81 106 -83 74 -133 158 -160 268 -20 80 -14 114 25 133 37 20 85 19 242 -5
73 -10 218 -29 322 -40 105 -12 262 -32 350 -45 247 -37 261 -38 316 -25 99
24 140 97 174 308 17 109 47 178 102 238 35 39 224 201 588 505 218 182 232
202 223 299 -4 39 -21 74 -88 182 -46 73 -100 169 -121 213 -95 205 -93 271
13 378 94 95 100 87 -64 87 -141 0 -145 -1 -189 -28z"/>
<path d="M2807 3051 c-42 -43 -81 -90 -87 -105 -34 -91 17 -233 174 -486 40
-63 78 -130 85 -148 19 -45 9 -123 -20 -167 -13 -20 -116 -113 -229 -207 -334
-280 -533 -452 -569 -493 -49 -56 -70 -110 -91 -239 -50 -298 -119 -341 -460
-286 -68 12 -255 36 -415 55 -159 19 -317 39 -350 45 -102 17 -179 13 -200
-10 -18 -19 -18 -24 -2 -95 28 -130 64 -187 195 -308 28 -26 44 -50 48 -74 9
-45 -2 -242 -18 -348 -15 -104 -14 -129 6 -160 l16 -25 235 0 235 0 0 29 c0
53 -20 84 -106 166 -101 97 -103 107 -39 197 96 136 108 174 90 299 -7 53 -6
57 20 77 42 33 83 36 330 21 299 -18 371 -17 415 5 84 44 95 68 114 251 13
123 22 162 50 232 43 104 141 253 237 356 106 115 305 277 467 379 165 105
192 134 192 213 0 58 -7 70 -116 216 -42 57 -88 128 -101 156 -62 135 -29 283
103 461 l54 72 -93 0 -94 0 -76 -79z"/>
<path d="M3052 3078 c-107 -140 -159 -266 -149 -368 7 -79 39 -145 131 -269
106 -142 116 -159 116 -209 0 -90 -36 -130 -215 -241 -328 -205 -594 -486
-686 -725 -23 -61 -34 -112 -45 -215 -17 -166 -25 -190 -73 -234 -60 -54 -94
-61 -260 -53 -439 20 -485 20 -520 1 l-34 -17 8 -61 c16 -125 4 -166 -81 -281
-73 -97 -71 -126 19 -197 72 -59 109 -111 115 -165 l5 -44 122 0 123 0 38 57
c21 32 49 84 62 116 32 79 22 101 -64 151 -100 57 -132 127 -96 208 26 60 71
90 140 96 62 5 150 -12 205 -40 65 -33 138 -39 261 -23 151 20 234 19 391 -7
130 -20 136 -20 180 -3 95 36 113 140 35 202 -8 7 -78 44 -155 82 -165 82
-205 113 -241 187 -24 49 -26 63 -21 124 14 163 105 343 255 501 134 141 272
236 407 279 120 38 241 128 276 205 44 95 17 157 -125 296 -207 200 -211 287
-26 558 33 47 69 98 80 114 l22 27 -80 0 -80 0 -40 -52z"/>
<path d="M3245 3089 c-46 -51 -145 -201 -181 -275 -20 -41 -27 -71 -27 -114 0
-92 35 -152 154 -262 149 -139 176 -209 123 -317 -43 -86 -144 -156 -319 -221
-263 -97 -520 -378 -594 -650 -30 -108 -28 -173 8 -236 36 -61 45 -68 241
-169 166 -86 200 -116 200 -180 0 -43 -37 -96 -83 -118 -46 -23 -102 -23 -231
-1 -98 16 -156 16 -436 -2 -83 -5 -103 -3 -155 16 -193 70 -264 73 -327 11
-47 -47 -57 -97 -32 -152 14 -32 32 -49 87 -81 112 -65 116 -110 27 -259 l-48
-79 98 0 98 0 125 138 c158 174 189 202 270 242 84 41 152 47 358 30 182 -15
269 -6 358 37 76 37 151 111 151 149 0 72 -97 202 -194 259 -24 14 -84 43
-134 64 -108 46 -155 80 -187 135 -34 59 -39 109 -20 201 31 151 107 289 220
402 82 82 159 119 275 132 47 5 104 17 128 25 100 36 311 208 332 272 9 27 8
45 -5 91 -35 119 -76 179 -178 259 -162 128 -191 170 -185 270 3 51 10 72 39
115 59 88 173 218 231 261 29 22 55 42 57 44 2 2 -43 4 -101 4 l-106 0 -37
-41z"/>
<path d="M3499 3110 c-53 -28 -134 -105 -211 -200 -86 -107 -110 -155 -110
-221 1 -74 35 -124 145 -212 144 -116 185 -172 222 -305 l18 -62 -25 -48 c-37
-73 -243 -232 -348 -268 -22 -8 -79 -18 -127 -24 -113 -12 -175 -43 -258 -127
-116 -117 -189 -260 -216 -418 -23 -142 27 -216 198 -289 173 -75 264 -150
319 -263 20 -39 25 -61 20 -87 -15 -79 -168 -177 -305 -196 -55 -8 -114 -6
-241 6 -198 18 -247 12 -351 -42 -59 -31 -91 -60 -213 -193 l-144 -156 87 -3
86 -3 24 33 c14 18 59 67 102 109 134 133 245 171 453 152 134 -13 285 -4 601
33 376 44 421 57 579 175 131 98 185 131 251 154 122 44 95 74 -75 86 -90 6
-122 13 -215 49 -61 23 -164 61 -230 85 -148 52 -190 73 -252 126 -89 78 -176
98 -291 69 -95 -25 -172 20 -172 101 0 53 42 97 133 142 78 37 84 43 242 234
109 132 262 271 449 406 90 66 121 114 121 186 -1 61 -7 77 -87 220 -56 100
-50 95 -223 205 -93 58 -114 94 -91 150 16 39 214 243 267 275 67 41 155 21
240 -56 49 -45 84 -110 98 -186 24 -132 53 -145 415 -182 128 -13 261 -31 294
-40 119 -30 438 -182 545 -258 87 -62 131 -115 180 -215 26 -54 53 -93 76
-111 20 -16 128 -84 241 -151 240 -143 402 -249 483 -314 l57 -47 0 65 0 65
-170 115 c-175 119 -401 282 -501 360 -31 24 -76 70 -100 102 -73 97 -201 176
-649 401 -122 61 -256 98 -410 112 -211 20 -250 46 -398 273 -31 47 -78 114
-104 147 l-48 61 -172 0 c-150 -1 -178 -3 -209 -20z m-16 -2472 c9 -5 17 -17
17 -27 0 -45 -85 -74 -137 -48 -55 29 -57 41 -16 70 31 22 45 25 78 20 22 -3
48 -9 58 -15z"/>
<path d="M3362 623 c-21 -15 -22 -17 -6 -34 29 -32 124 -20 124 16 0 34 -78
46 -118 18z"/>
<path d="M3944 3076 c24 -30 83 -113 129 -184 120 -181 157 -204 372 -228 161
-18 278 -50 395 -108 449 -225 601 -319 665 -411 28 -41 73 -83 155 -144 158
-120 467 -337 572 -403 l28 -18 0 53 0 52 -72 44 c-83 51 -236 177 -260 212
-9 14 -42 43 -74 64 -104 70 -177 127 -255 199 -80 75 -108 91 -314 181 -149
65 -255 121 -407 212 -130 78 -208 107 -357 128 -195 29 -255 60 -341 176 -33
44 -76 113 -96 154 l-37 75 -74 0 -73 0 44 -54z"/>
<path d="M4070 3125 c0 -11 51 -106 87 -163 93 -145 166 -190 353 -217 159
-23 241 -53 395 -145 157 -93 256 -144 423 -216 162 -70 201 -93 292 -178 42
-39 118 -100 170 -136 52 -36 137 -106 191 -156 85 -81 221 -184 264 -200 12
-5 15 3 15 34 0 38 -4 44 -62 89 -35 26 -142 124 -238 218 -179 173 -317 282
-393 308 -23 8 -94 32 -157 52 -63 20 -174 65 -246 99 -118 57 -165 85 -329
201 -66 46 -137 72 -265 97 -161 30 -242 72 -306 159 -19 27 -44 72 -54 101
l-18 53 -61 3 c-34 2 -61 0 -61 -3z"/>
<path d="M4216 3108 c46 -146 148 -238 299 -268 219 -43 264 -61 375 -143 166
-124 331 -205 572 -281 128 -41 157 -54 235 -109 48 -34 160 -132 248 -218 88
-86 194 -184 235 -218 l75 -63 3 42 c3 35 -1 44 -25 63 -100 77 -348 351 -399
442 -41 74 -57 90 -116 115 -37 16 -83 23 -186 30 -225 15 -373 65 -497 169
-164 138 -264 194 -418 237 -128 35 -147 44 -190 83 -39 35 -77 97 -77 126 0
12 -14 15 -71 15 -68 0 -70 -1 -63 -22z"/>
<path d="M4370 3115 c0 -27 38 -91 69 -118 33 -27 66 -41 206 -82 145 -44 225
-89 368 -208 153 -127 269 -170 523 -191 207 -18 256 -42 312 -151 11 -22 42
-66 69 -97 26 -31 79 -93 116 -137 68 -80 204 -211 219 -211 4 0 8 20 8 44 0
40 -5 48 -71 117 -100 104 -181 229 -214 330 -33 99 -76 149 -146 167 -66 18
-211 32 -334 32 -220 1 -316 40 -475 195 -119 116 -199 171 -303 211 -77 29
-155 77 -164 100 -8 21 -183 20 -183 -1z"/>
<path d="M4603 3096 c20 -18 59 -41 85 -51 128 -48 204 -98 328 -216 171 -164
250 -199 452 -199 152 0 352 -24 399 -48 53 -27 100 -82 113 -133 31 -113 117
-252 220 -354 l60 -59 0 80 c0 64 -4 86 -19 105 -54 69 -78 146 -91 288 -6 62
-16 113 -25 127 -37 58 -103 70 -469 89 -179 10 -314 21 -342 30 -97 29 -146
80 -222 231 -22 44 -53 95 -67 112 l-27 32 -216 0 -217 -1 38 -33z"/>
<path d="M5042 3103 c14 -16 47 -70 72 -121 100 -201 145 -223 486 -237 374
-15 473 -31 524 -84 28 -29 30 -38 55 -229 8 -64 60 -202 75 -202 4 0 6 144 6
320 l0 320 -144 0 c-79 0 -204 -7 -277 -16 -275 -31 -431 21 -506 171 -14 27
-34 62 -45 78 l-19 27 -127 0 -126 0 26 -27z"/>
<path d="M5308 3103 c11 -16 31 -51 45 -79 70 -140 222 -185 504 -150 73 9
193 16 268 16 l135 0 0 120 0 120 -118 0 c-113 0 -120 -1 -142 -25 -76 -81
-310 -78 -386 6 -15 17 -32 19 -171 19 l-154 0 19 -27z"/>
<path d="M5640 3110 c67 -54 223 -64 307 -22 23 12 44 26 48 32 4 7 -59 10
-187 10 l-193 0 25 -20z"/>
<path d="M3671 2993 c-28 -5 -265 -233 -287 -275 -8 -15 -14 -34 -14 -42 0
-28 52 -76 138 -127 48 -29 100 -64 115 -78 24 -22 70 -98 140 -234 58 -113
18 -209 -132 -315 -159 -111 -365 -306 -473 -445 -85 -110 -117 -140 -185
-173 -85 -40 -114 -63 -129 -100 -12 -29 -12 -39 0 -67 18 -45 61 -62 124 -52
26 5 83 9 127 9 90 0 116 -10 190 -74 53 -46 133 -89 215 -115 30 -9 124 -44
209 -77 144 -56 163 -61 266 -68 111 -7 140 -15 165 -45 11 -13 9 -19 -10 -40
-13 -14 -30 -25 -37 -25 -34 0 -148 -64 -248 -140 -185 -139 -240 -157 -645
-206 -195 -24 -263 -28 -511 -28 l-285 -1 -78 -39 c-79 -38 -183 -129 -235
-203 l-22 -33 78 0 79 0 30 40 c105 136 252 174 591 151 104 -7 222 -16 263
-21 178 -20 344 24 800 215 140 59 291 121 335 137 95 35 138 66 165 118 77
151 -58 274 -330 301 -319 31 -420 52 -515 110 -73 43 -163 141 -200 216 -85
173 30 389 305 573 173 116 273 231 340 393 50 121 126 172 293 198 92 15 323
5 402 -16 76 -20 258 -109 352 -172 84 -56 119 -99 128 -156 24 -156 64 -197
275 -289 180 -79 251 -123 358 -222 42 -39 118 -106 167 -148 106 -89 171
-158 186 -196 12 -29 5 -139 -12 -207 -6 -22 -47 -131 -91 -242 -90 -227 -92
-246 -35 -300 37 -35 76 -49 165 -59 l62 -7 0 97 c0 87 -2 101 -24 129 -40 52
-41 90 -6 191 l30 90 0 241 0 242 -47 40 c-94 78 -289 205 -588 381 -166 98
-197 126 -243 225 -73 153 -171 227 -493 372 -193 87 -250 101 -564 130 -166
15 -249 30 -293 54 -39 21 -72 76 -83 138 -27 151 -160 268 -278 246z"/>
<path d="M4240 2402 c-126 -34 -174 -75 -220 -191 -55 -142 -165 -264 -352
-392 -174 -119 -270 -236 -304 -370 -19 -76 -10 -133 33 -207 37 -63 139 -162
196 -190 78 -39 228 -71 405 -86 92 -9 192 -23 222 -32 115 -34 189 -86 216
-149 45 -109 -26 -223 -173 -274 -37 -13 -185 -73 -328 -133 -143 -60 -334
-135 -425 -165 -150 -51 -173 -56 -275 -61 -61 -2 -143 1 -184 7 -119 19 -444
26 -528 12 -97 -17 -178 -57 -233 -117 l-45 -49 79 -3 c72 -3 81 -1 105 21 39
36 61 45 168 68 109 23 140 22 378 -13 77 -11 187 -20 245 -20 102 0 110 1
315 66 637 203 814 272 936 363 111 84 169 184 169 294 0 82 -23 120 -100 167
-85 51 -159 68 -427 102 -359 45 -455 72 -536 153 -61 61 -92 137 -92 227 0
125 54 199 240 332 155 111 241 183 360 304 171 173 282 232 415 221 135 -12
197 -52 313 -200 84 -108 207 -223 287 -270 36 -21 110 -51 165 -68 271 -83
332 -119 453 -264 99 -120 174 -196 224 -232 54 -37 92 -120 86 -187 -4 -49
-19 -83 -157 -351 -17 -33 -47 -95 -67 -139 -20 -43 -55 -99 -78 -124 -22 -25
-151 -137 -284 -249 l-244 -203 190 0 189 0 18 40 c23 52 92 115 158 145 45
21 58 23 96 14 65 -15 146 -73 194 -140 l41 -59 88 0 88 0 0 199 0 199 -82 12
c-97 14 -152 39 -178 82 -38 64 -37 75 46 280 93 233 106 280 108 383 1 102
-3 109 -182 261 -75 65 -167 146 -204 180 -77 72 -139 109 -338 198 -198 90
-240 137 -265 298 -3 21 -18 52 -32 69 -53 63 -273 187 -408 230 -98 31 -387
38 -485 11z"/>
<path d="M836 2289 c9 -16 64 -40 75 -33 6 3 7 10 2 14 -13 12 -84 30 -77 19z"/>
<path d="M4360 2250 c-82 -30 -142 -76 -280 -212 -122 -121 -210 -193 -379
-313 -140 -100 -192 -173 -199 -280 -7 -110 54 -223 153 -281 64 -37 172 -60
442 -94 339 -43 412 -64 502 -145 53 -48 65 -81 59 -164 -7 -89 -50 -173 -130
-246 -131 -121 -282 -183 -1018 -415 l-195 -62 -130 5 c-71 3 -195 15 -275 27
-90 13 -172 20 -215 17 -103 -7 -206 -34 -240 -63 l-30 -25 125 6 c147 8 202
8 626 0 l320 -6 55 24 c30 13 92 36 138 52 71 23 93 27 149 21 76 -8 113 -25
142 -66 21 -30 22 -30 122 -30 94 0 101 1 119 24 11 14 39 32 64 42 63 24 129
15 219 -30 l74 -36 298 0 299 1 240 200 c132 109 261 222 288 250 29 31 62 84
87 137 22 48 50 105 61 127 205 388 206 409 33 569 -53 49 -130 131 -171 182
-113 140 -174 180 -369 239 -151 45 -203 67 -284 120 -97 63 -150 114 -256
247 -53 65 -113 131 -134 144 -84 56 -210 69 -310 34z m156 -215 c56 -28 134
-80 200 -133 220 -177 262 -198 569 -282 163 -44 285 -131 354 -253 18 -32 64
-92 103 -133 121 -131 125 -171 39 -336 -32 -62 -71 -149 -86 -193 -56 -163
-155 -268 -338 -360 -192 -96 -243 -76 -281 107 -29 138 -17 234 45 369 76
165 24 222 -236 259 -77 11 -196 33 -265 49 -108 26 -159 31 -380 41 -292 13
-385 23 -453 47 -97 35 -167 125 -167 215 0 59 45 133 117 194 88 76 460 363
500 386 48 29 144 67 168 68 11 0 61 -20 111 -45z"/>
<path d="M4350 2046 c-82 -28 -116 -50 -287 -182 -261 -202 -344 -272 -381
-320 -34 -44 -37 -52 -37 -115 0 -59 4 -73 30 -111 42 -58 116 -95 220 -108
44 -6 206 -17 360 -25 220 -11 295 -19 350 -35 39 -11 144 -31 235 -45 91 -13
180 -29 198 -34 44 -13 98 -48 117 -74 26 -37 19 -106 -19 -188 -44 -96 -60
-180 -53 -277 11 -141 54 -232 107 -232 31 0 145 47 221 91 137 79 216 173
264 314 15 44 54 131 86 193 86 165 81 208 -38 334 -38 40 -84 99 -102 130
-77 136 -188 206 -416 263 -196 48 -291 97 -479 249 -73 59 -157 115 -216 145
l-96 50 -64 -23z m125 -230 c28 -13 74 -44 102 -69 119 -103 203 -140 504
-222 211 -58 295 -93 346 -147 57 -59 88 -158 67 -213 -8 -20 -56 -45 -88 -45
-14 0 -72 18 -128 39 -145 55 -172 61 -321 71 -73 5 -199 22 -282 39 -184 36
-214 39 -490 51 -242 10 -285 18 -327 60 -40 40 -37 78 10 132 54 63 218 214
271 251 116 79 239 99 336 53z"/>
<path d="M4308 1819 c-73 -11 -163 -66 -272 -165 -176 -159 -201 -193 -180
-249 19 -48 171 -74 434 -75 130 0 233 -12 420 -49 80 -16 198 -32 263 -36
126 -7 171 -17 309 -71 141 -55 198 -42 198 42 0 52 -39 133 -81 168 -50 43
-119 70 -291 116 -310 83 -409 125 -538 231 -105 86 -160 104 -262 88z"/>
<path d="M2 1705 c0 -147 0 -149 16 -115 22 46 22 181 -1 230 -15 34 -15 30
-15 -115z"/>
<path d="M0 644 l0 -347 55 52 c58 55 143 101 186 101 39 0 108 -27 147 -57
65 -49 76 -122 43 -273 -11 -47 -22 -93 -26 -102 -6 -16 1 -18 81 -18 l89 0
30 82 c17 45 38 103 47 128 44 115 10 195 -129 307 -110 88 -158 148 -208 258
-48 104 -76 140 -133 169 -43 21 -132 46 -167 46 -13 0 -15 -50 -15 -346z"/>
<path d="M6235 799 c-18 -66 -14 -119 10 -139 13 -11 15 1 15 94 0 58 -2 106
-4 106 -2 0 -11 -28 -21 -61z"/>
<path d="M200 423 c-51 -17 -95 -47 -157 -107 l-43 -40 0 -138 0 -138 190 0
189 0 15 50 c41 139 46 253 12 305 -16 24 -88 64 -141 78 -11 3 -40 -1 -65
-10z"/>
<path d="M5754 172 c-55 -26 -111 -77 -135 -123 -10 -21 -19 -41 -19 -44 0 -3
104 -5 230 -5 l231 0 -12 21 c-20 38 -91 110 -133 134 -59 34 -112 40 -162 17z"/>
<path d="M3657 46 c-54 -18 -101 -36 -104 -40 -3 -3 92 -6 212 -6 l217 0 -14
22 c-23 35 -65 51 -143 55 -59 2 -86 -2 -168 -31z"/>
<path d="M4285 51 c-11 -5 -29 -18 -39 -30 l-19 -21 154 1 154 1 -60 29 c-62
30 -144 38 -190 20z"/>
</g>
</svg>
